<svg xmlns="http://www.w3.org/2000/svg" width="11.472" height="12.414" viewBox="0 0 11.472 12.414">
  <g id="Icon_feather-share-2" data-name="Icon feather-share-2" transform="translate(1.5 1.5)">
    <path id="Path_7" data-name="Path 7" d="M25.324,4.412A1.412,1.412,0,1,1,23.912,3,1.412,1.412,0,0,1,25.324,4.412Z" transform="translate(-16.852 -3)" fill="none" stroke="#646464" stroke-linecap="round" stroke-linejoin="round" stroke-width="3"/>
    <path id="Path_8" data-name="Path 8" d="M7.324,14.912A1.412,1.412,0,1,1,5.912,13.5,1.412,1.412,0,0,1,7.324,14.912Z" transform="translate(-4.5 -10.205)" fill="none" stroke="#646464" stroke-linecap="round" stroke-linejoin="round" stroke-width="3"/>
    <path id="Path_9" data-name="Path 9" d="M25.324,25.412A1.412,1.412,0,1,1,23.912,24,1.412,1.412,0,0,1,25.324,25.412Z" transform="translate(-16.852 -17.411)" fill="none" stroke="#646464" stroke-linecap="round" stroke-linejoin="round" stroke-width="3"/>
    <path id="Path_10" data-name="Path 10" d="M12.885,20.265,16.1,22.138" transform="translate(-10.254 -14.847)" fill="none" stroke="#646464" stroke-linecap="round" stroke-linejoin="round" stroke-width="3"/>
    <path id="Path_11" data-name="Path 11" d="M16.1,9.765l-3.21,1.873" transform="translate(-10.254 -7.642)" fill="none" stroke="#646464" stroke-linecap="round" stroke-linejoin="round" stroke-width="3"/>
  </g>
</svg>
